<svg xmlns="http://www.w3.org/2000/svg" viewBox="0 0 40 40"><circle cx="20" cy="20" r="20" fill="#fff"/><circle cx="20" cy="20" r="18.38" fill="#fff" stroke="#161511" stroke-miterlimit="10"/><path d="M19.79,27.63a2,2,0,0,1,2.06-1.93h2.23a1.61,1.61,0,0,0,1.61-1.61V21.84a1.6,1.6,0,0,0-1.61-1.61H21.69a2,2,0,0,1-1.93-2.06V15.75a2,2,0,0,1,2.06-1.94h2.25a1.6,1.6,0,0,0,1.61-1.6V10a1.61,1.61,0,0,0-1.61-1.61H21.84A1.61,1.61,0,0,0,20.23,10v2.25A2,2,0,0,1,18.3,14.3H15.93a1.61,1.61,0,0,0-1.61,1.61v2.25a1.61,1.61,0,0,0,1.61,1.61h2.27a2,2,0,0,1,2.06,1.94v2.42a2,2,0,0,1-1.94,2H15.93a1.61,1.61,0,0,0-1.61,1.61V30a1.61,1.61,0,0,0,1.61,1.61h2.25A1.61,1.61,0,0,0,19.78,30Z" fill="#1d1d1b"/></svg>